<?xml version="1.0" encoding="UTF-8"?>
<svg width="88px" height="83px" viewBox="0 0 88 83" version="1.1" xmlns="http://www.w3.org/2000/svg" xmlns:xlink="http://www.w3.org/1999/xlink">
    <!-- Generator: Sketch 44.1 (41455) - http://www.bohemiancoding.com/sketch -->
    <title>Group 3</title>
    <desc>Created with Sketch.</desc>
    <defs>
        <filter x="-9.1%" y="-27.8%" width="118.3%" height="155.6%" filterUnits="objectBoundingBox" id="filter-1">
            <feGaussianBlur stdDeviation="2" in="SourceGraphic"></feGaussianBlur>
        </filter>
    </defs>
    <g id="Layout-V2" stroke="none" stroke-width="1" fill="none" fill-rule="evenodd">
        <g id="20---CONTATO" transform="translate(-1168.000000, -1185.000000)">
            <g id="Group-3" transform="translate(1168.000000, 1185.000000)">
                <path d="M46.6190991,69.458018 C39.0097297,68.6327928 35.6843243,66.3185586 39.3607207,64.3077477 C43.0371171,62.2962162 52.1390991,61.4183784 59.5243243,62.325045 C66.7365766,63.2100901 69.6576577,65.4774775 66.2010811,67.4068468 C62.7452252,69.3369369 54.0482883,70.2630631 46.6190991,69.458018 M67.7369369,57.7859459 C51.0904505,55.5812613 30.4872072,57.9517117 21.7246847,62.6832432 C10.6133333,68.6825225 30.1945946,78.5362162 30.1945946,78.5362162 C30.1945946,78.5362162 70.7524324,74.910991 80.4612613,69.4277477 C88.0151351,65.1610811 83.5113514,59.8731532 67.7369369,57.7859459" id="Fill-3-Copy" fill-opacity="0.2" fill="#000000" filter="url(#filter-1)"></path>
                <path d="M0,32.0338739 C0,53.8082883 29.3881081,78.8533333 29.3881081,78.8533333 C29.3881081,78.8533333 58.7769369,53.8082883 58.7769369,32.0338739 C58.7769369,15.0940541 46.2248649,0 29.3881081,0 C12.5506306,0 0,14.8627027 0,32.0338739 Z" id="Fill-6-Copy" fill="#008267"></path>
                <path d="M6,29.5 C6,42.4785258 16.5212493,53 29.5,53 C42.4787507,53 53,42.4785258 53,29.5 C53,16.5214742 42.4787507,6 29.5,6 C16.5212493,6 6,16.5214742 6,29.5 Z M8.29268293,29.5 C8.29268293,17.7876771 17.7874741,8.29268293 29.5,8.29268293 C41.2125259,8.29268293 50.7073171,17.7876771 50.7073171,29.5 C50.7073171,41.2123229 41.2125259,50.7073171 29.5,50.7073171 C17.7874741,50.7073171 8.29268293,41.2123229 8.29268293,29.5 Z" id="Fill-1-Copy" fill="#00C299" fill-rule="nonzero" opacity="0.5"></path>
                <path d="M33.11,37.06 L34.16,40.03 L41.57,40.03 L33.02,19 L25.88,19 L17,40.03 L24.14,40.03 L25.22,37.06 L33.11,37.06 Z M31.4,32.08 L27.02,32.08 L29.24,25.93 L31.4,32.08 Z" id="A" fill="#00C299"></path>
            </g>
        </g>
    </g>
</svg>